<svg xmlns="http://www.w3.org/2000/svg" xmlns:xlink="http://www.w3.org/1999/xlink" viewBox="0 0 18 18"><path d="M 9.182 3.208 C 11.484 2.037 13.694 1.917 14.888 3.111 C 16.686 4.908 15.506 9.002 12.254 12.254 C 12.091 12.417 11.926 12.574 11.76 12.726 M 8.959 14.719 C 6.606 15.957 4.33 16.108 3.111 14.888 C 1.314 13.091 2.493 8.998 5.746 5.746 C 5.921 5.57 6.099 5.401 6.279 5.238 M 14.888 14.889 C 13.091 16.686 8.998 15.506 5.746 12.254 C 2.493 9.002 1.314 4.908 3.111 3.111 C 4.908 1.314 9.002 2.494 12.254 5.746 C 15.506 8.998 16.686 13.091 14.888 14.889 Z M 9.75 9 C 9.75 9.414 9.415 9.75 9 9.75 C 8.586 9.75 8.25 9.414 8.25 9 C 8.25 8.586 8.586 8.25 9 8.25 C 9.415 8.25 9.75 8.586 9.75 9 Z" fill="transparent" stroke-width="1.3" stroke="rgb(241,241,241)" stroke-linecap="round" stroke-linejoin="round" stroke-dasharray=""></path></svg>