<svg xmlns="http://www.w3.org/2000/svg" xmlns:xlink="http://www.w3.org/1999/xlink" viewBox="0 0 18 18"><path d="M 4.499 6 L 4.499 5.883 C 4.499 4.732 4.499 4.157 4.715 3.7 C 4.905 3.298 5.21 2.962 5.591 2.733 C 6.023 2.473 6.596 2.415 7.741 2.301 L 11.792 1.896 C 13.163 1.759 13.849 1.69 14.379 1.915 C 14.845 2.113 15.23 2.462 15.473 2.905 C 15.75 3.41 15.75 4.1 15.75 5.478 L 15.75 12.522 C 15.75 13.9 15.75 14.59 15.473 15.095 C 15.23 15.538 14.845 15.887 14.379 16.085 C 13.849 16.31 13.163 16.241 11.792 16.104 L 7.741 15.699 C 6.596 15.585 6.023 15.527 5.59 15.267 C 5.209 15.038 4.904 14.701 4.714 14.299 C 4.499 13.843 4.499 13.267 4.499 12.116 L 4.499 12 M 11.623 9 L 8.421 12.202 M 11.623 9 L 8.421 5.798 M 11.623 9 L 2.265 9" fill="transparent" stroke-width="1.3" stroke="rgb(241,241,241)" stroke-linecap="round" stroke-linejoin="round" stroke-dasharray=""></path></svg>