<svg xmlns="http://www.w3.org/2000/svg" xmlns:xlink="http://www.w3.org/1999/xlink" viewBox="0 0 18 18"><path d="M 4.5 9 L 10.5 9 C 11.197 9 11.546 9 11.832 8.923 C 12.609 8.715 13.215 8.109 13.423 7.332 C 13.5 7.046 13.5 6.697 13.5 6 M 4.5 9 L 4.5 12 M 4.5 9 L 4.5 6 M 4.5 12 C 3.257 12 2.25 13.007 2.25 14.25 C 2.25 15.493 3.257 16.5 4.5 16.5 C 5.743 16.5 6.75 15.493 6.75 14.25 C 6.75 13.007 5.743 12 4.5 12 Z M 4.5 6 C 5.743 6 6.75 4.993 6.75 3.75 C 6.75 2.507 5.743 1.5 4.5 1.5 C 3.257 1.5 2.25 2.507 2.25 3.75 C 2.25 4.993 3.257 6 4.5 6 Z M 13.5 6 C 14.743 6 15.75 4.993 15.75 3.75 C 15.75 2.507 14.743 1.5 13.5 1.5 C 12.257 1.5 11.25 2.507 11.25 3.75 C 11.25 4.993 12.257 6 13.5 6 Z" fill="transparent" stroke-width="1.3" stroke="rgb(241,241,241)" stroke-linecap="round" stroke-linejoin="round" stroke-dasharray=""></path></svg>